<?xml version="1.0" encoding="UTF-8"?> <!-- Generator: Adobe Illustrator 23.0.6, SVG Export Plug-In . SVG Version: 6.00 Build 0) --> <svg xmlns="http://www.w3.org/2000/svg" xmlns:xlink="http://www.w3.org/1999/xlink" id="Layer_1" x="0px" y="0px" viewBox="0 0 200 53.8" style="enable-background:new 0 0 200 53.8;" xml:space="preserve"> <style type="text/css"> .st0{fill:#4265AE;} .st1{fill:#FFFFFF;} .st2{fill:#767576;} .st3{fill:#4167B0;} .st4{fill:#5381C1;} .st5{fill:#C6C4C4;} .st6{fill:#F1F2F3;} .st7{fill:#D3D5D4;} .st8{fill:#A2A2A3;} .st9{fill:#F4F5F6;} </style> <g> <path class="st0" d="M186,53.8H14c-7.8,0-14-6.3-14-14V17.8c0-7.8,6.3-14,14-14H186c7.8,0,14,6.3,14,14v21.9 C200,47.5,193.7,53.8,186,53.8z"></path> <path class="st1" d="M186,50H14C6.3,50,0,43.7,0,36V14C0,6.3,6.3,0,14,0H186c7.8,0,14,6.3,14,14V36C200,43.7,193.7,50,186,50z"></path> <g> <g> <g id="g3062"> <g id="path3064_1_"> <path class="st2" d="M76.4,23.6H71v1.6h3.8c-0.2,2.2-2,3.2-3.8,3.2c-2.2,0-4.2-1.8-4.2-4.2c0-2.4,1.9-4.2,4.2-4.2 c1.8,0,2.9,1.1,2.9,1.1l1.1-1.1c0,0-1.4-1.6-4-1.6c-3.3,0-5.9,2.8-5.9,5.8c0,3,2.4,5.8,5.9,5.8c3.1,0,5.4-2.1,5.4-5.3 C76.5,24,76.4,23.6,76.4,23.6L76.4,23.6z"></path> </g> <g id="path3066_1_"> <path class="st2" d="M80.7,22.5c-2.2,0-3.8,1.7-3.8,3.7c0,2,1.5,3.8,3.8,3.8c2,0,3.7-1.6,3.7-3.7 C84.5,23.7,82.5,22.5,80.7,22.5z M80.8,23.9c1.1,0,2.1,0.9,2.1,2.3c0,1.4-1,2.3-2.1,2.3c-1.2,0-2.1-1-2.1-2.3 C78.6,24.9,79.5,23.9,80.8,23.9z"></path> </g> <g id="path3068_1_"> <path class="st2" d="M88.9,22.5c-2.2,0-3.8,1.7-3.8,3.7c0,2,1.5,3.8,3.8,3.8c2,0,3.7-1.6,3.7-3.7 C92.7,23.7,90.7,22.5,88.9,22.5z M88.9,23.9c1.1,0,2.1,0.9,2.1,2.3c0,1.4-1,2.3-2.1,2.3c-1.2,0-2.1-1-2.1-2.3 C86.8,24.9,87.7,23.9,88.9,23.9z"></path> </g> <g id="path3070_1_"> <path class="st2" d="M96.9,22.5c-2,0-3.6,1.8-3.6,3.7c0,2.3,1.8,3.7,3.6,3.7c1.1,0,1.6-0.4,2.1-0.9v0.7c0,1.3-0.8,2.1-2,2.1 c-1.1,0-1.7-0.8-1.9-1.3l-1.4,0.6c0.5,1.1,1.5,2.2,3.4,2.2c2,0,3.5-1.3,3.5-3.9v-6.7h-1.6v0.6C98.5,22.8,97.8,22.5,96.9,22.5 L96.9,22.5z M97.1,23.9c1,0,2,0.8,2,2.3c0,1.5-1,2.3-2,2.3c-1.1,0-2.1-0.9-2.1-2.3C95,24.8,96,23.9,97.1,23.9z"></path> </g> <g id="path3072_1_"> <path class="st2" d="M107.5,22.5c-1.9,0-3.5,1.5-3.5,3.7c0,2.4,1.8,3.8,3.7,3.8c1.6,0,2.6-0.9,3.1-1.6l-1.3-0.9 c-0.3,0.5-0.9,1-1.8,1c-1.1,0-1.5-0.6-1.8-1.1l5-2.1l-0.3-0.6C110.1,23.5,109,22.5,107.5,22.5L107.5,22.5z M107.6,23.9 c0.7,0,1.2,0.4,1.4,0.8l-3.3,1.4C105.4,25,106.5,23.9,107.6,23.9L107.6,23.9z"></path> </g> <g id="path3074_1_"> <path class="st2" d="M101.6,29.7h1.6v-11h-1.6V29.7z"></path> </g> </g> <g> <path class="st2" d="M120.7,29.9c-1.6,0-3-0.6-4.1-1.7c-1.1-1.1-1.6-2.5-1.6-4.1s0.5-3,1.6-4.1c1.1-1.1,2.5-1.7,4.1-1.7 c1.7,0,3,0.6,4.1,1.8l-1,1c-0.8-1-1.8-1.4-3-1.4c-1.2,0-2.2,0.4-3.1,1.2c-0.8,0.8-1.2,1.9-1.2,3.2c0,1.3,0.4,2.4,1.2,3.2 c0.8,0.8,1.8,1.2,3.1,1.2c1.3,0,2.4-0.5,3.3-1.6l1,1c-0.5,0.6-1.2,1.1-1.9,1.5C122.4,29.7,121.6,29.9,120.7,29.9z"></path> <path class="st2" d="M129,21.9c1,0,1.9,0.3,2.5,0.8c0.6,0.6,0.9,1.3,0.9,2.3v4.7h-1.4v-1H131c-0.6,0.9-1.4,1.3-2.3,1.3 c-0.8,0-1.5-0.2-2.1-0.7c-0.6-0.5-0.8-1.1-0.8-1.9c0-0.8,0.3-1.4,0.9-1.9c0.6-0.5,1.4-0.7,2.4-0.7c0.8,0,1.5,0.2,2.1,0.5v-0.3 c0-0.5-0.2-0.9-0.6-1.3c-0.4-0.3-0.8-0.5-1.4-0.5c-0.8,0-1.4,0.3-1.9,1l-1.2-0.8C126.7,22.4,127.7,21.9,129,21.9z M127.2,27.4 c0,0.4,0.2,0.7,0.5,0.9c0.3,0.2,0.7,0.4,1.1,0.4c0.6,0,1.1-0.2,1.6-0.7s0.7-1,0.7-1.6c-0.4-0.3-1.1-0.5-1.9-0.5 c-0.6,0-1.1,0.1-1.4,0.4C127.4,26.6,127.2,26.9,127.2,27.4z"></path> <path class="st2" d="M135.5,18.6v11H134v-11H135.5z"></path> <path class="st2" d="M140.5,29.9c-1.1,0-2-0.4-2.7-1.1s-1.1-1.7-1.1-2.9c0-1.2,0.3-2.1,1-2.9c0.7-0.8,1.6-1.1,2.7-1.1 c1.1,0,2,0.4,2.7,1.1s1,1.7,1,3l0,0.2h-5.9c0,0.7,0.3,1.3,0.7,1.8c0.5,0.5,1,0.7,1.7,0.7c0.9,0,1.6-0.5,2.1-1.4l1.3,0.6 c-0.3,0.6-0.8,1.1-1.4,1.5C141.9,29.7,141.3,29.9,140.5,29.9z M138.2,25h4.3c0-0.5-0.3-1-0.6-1.3c-0.4-0.3-0.9-0.5-1.5-0.5 c-0.5,0-1,0.2-1.4,0.5C138.6,24,138.4,24.4,138.2,25z"></path> <path class="st2" d="M145.4,22.1h1.4v1h0.1c0.2-0.4,0.5-0.7,1-0.9s0.9-0.4,1.4-0.4c0.9,0,1.6,0.3,2.1,0.8 c0.5,0.5,0.7,1.3,0.7,2.3v4.7h-1.4V25c0-1.2-0.7-1.9-1.9-1.9c-0.6,0-1,0.2-1.4,0.7c-0.4,0.5-0.6,1-0.6,1.6v4.2h-1.4V22.1z"></path> <path class="st2" d="M156.9,29.9c-1,0-1.8-0.4-2.5-1.2c-0.7-0.8-1-1.7-1-2.9c0-1.1,0.3-2.1,1-2.9c0.7-0.8,1.6-1.2,2.5-1.2 c0.6,0,1.1,0.1,1.5,0.4c0.5,0.2,0.8,0.6,1.1,0.9h0.1l-0.1-1v-3.5h1.4v11h-1.4v-1h-0.1c-0.2,0.4-0.6,0.7-1.1,0.9 C157.9,29.8,157.4,29.9,156.9,29.9z M157.1,28.6c0.7,0,1.3-0.3,1.7-0.8c0.5-0.5,0.7-1.2,0.7-2c0-0.8-0.2-1.4-0.7-2 c-0.5-0.5-1-0.8-1.7-0.8c-0.7,0-1.2,0.3-1.7,0.8c-0.5,0.5-0.7,1.2-0.7,2c0,0.8,0.2,1.5,0.7,2C155.9,28.4,156.4,28.6,157.1,28.6z "></path> <path class="st2" d="M165.4,21.9c1,0,1.9,0.3,2.5,0.8c0.6,0.6,0.9,1.3,0.9,2.3v4.7h-1.4v-1h-0.1c-0.6,0.9-1.4,1.3-2.3,1.3 c-0.8,0-1.5-0.2-2.1-0.7c-0.6-0.5-0.8-1.1-0.8-1.9c0-0.8,0.3-1.4,0.9-1.9c0.6-0.5,1.4-0.7,2.4-0.7c0.8,0,1.5,0.2,2.1,0.5v-0.3 c0-0.5-0.2-0.9-0.6-1.3c-0.4-0.3-0.8-0.5-1.4-0.5c-0.8,0-1.4,0.3-1.9,1l-1.2-0.8C163,22.4,164,21.9,165.4,21.9z M163.6,27.4 c0,0.4,0.2,0.7,0.5,0.9c0.3,0.2,0.7,0.4,1.1,0.4c0.6,0,1.1-0.2,1.6-0.7s0.7-1,0.7-1.6c-0.4-0.3-1.1-0.5-1.9-0.5 c-0.6,0-1.1,0.1-1.4,0.4C163.8,26.6,163.6,26.9,163.6,27.4z"></path> <path class="st2" d="M171.8,29.7h-1.4v-7.6h1.4v1.2h0.1c0.1-0.4,0.4-0.7,0.9-1c0.4-0.3,0.9-0.4,1.3-0.4c0.4,0,0.8,0.1,1,0.2 l-0.4,1.4c-0.2-0.1-0.5-0.1-0.8-0.1c-0.5,0-1,0.2-1.4,0.6c-0.4,0.4-0.6,0.9-0.6,1.5V29.7z"></path> </g> </g> </g> <g> <path class="st3" d="M56.2,15.6v-1.8c0-1.2-0.9-2.1-2.1-2.1h-20c-1.2,0-2.1,0.9-2.1,2.1v1.8c-0.9,0.4-1.5,1.3-1.3,2.3l1.4,9h0 l-0.5,9c-0.2,1.3,0.8,2.5,2.1,2.5h9.4H45h9.4c1.3,0,2.3-1.2,2.1-2.5l-0.5-9h0l1.4-9C57.6,16.9,57.1,15.9,56.2,15.6z"></path> <g> <path class="st4" d="M56.8,36.1l-0.5-9.2H45h-1.8H31.9l-0.5,9.2c-0.2,1.3,0.8,2.5,2.2,2.5h9.6H45h9.6C56,38.6,57,37.4,56.8,36.1z "></path> <path class="st5" d="M56.4,17.1H31.8v-3.6c0-1.2,1-2.1,2.1-2.1h20.4c1.2,0,2.1,1,2.1,2.1V17.1z"></path> <path class="st3" d="M55.6,15.2h-7.7H45H32.6c-1.4,0-2.4,1.2-2.2,2.5l1.4,9.2h7.4v-0.7h0.9c0.6,0,1.2-0.2,1.6-0.5 s0.6-0.8,0.6-1.4c0-0.5-0.2-1-0.6-1.3c-0.4-0.3-0.9-0.5-1.5-0.5c-1,0-1.7,0.5-2.1,1.6l-1.5-0.6c0.3-0.7,0.7-1.3,1.4-1.8 s1.4-0.7,2.2-0.7c1.1,0,2,0.3,2.7,1c0.7,0.6,1.1,1.4,1.1,2.4c0,1.2-0.5,2-1.6,2.6v0H45h2.9h0.8v-3.7l-2.3,1l-0.6-1.4l3.6-1.7h1 v5.7h6.1l1.4-9.2C57.9,16.4,56.9,15.2,55.6,15.2z"></path> <path class="st6" d="M39.2,27.7h1c0.7,0,1.3,0.2,1.7,0.6c0.5,0.4,0.7,0.9,0.7,1.5c0,0.6-0.2,1.1-0.7,1.5C41.6,31.8,41,32,40.4,32 c-0.6,0-1.1-0.2-1.5-0.5c-0.4-0.4-0.7-0.9-0.9-1.5l-1.5,0.6c0.3,0.9,0.8,1.6,1.5,2.2c0.7,0.5,1.5,0.8,2.5,0.8 c1.2,0,2.1-0.4,2.9-1.1c0.8-0.7,1.2-1.6,1.2-2.7c0-0.6-0.2-1.2-0.5-1.7c-0.4-0.5-0.9-0.9-1.5-1.2v0h-3.2V27.7z"></path> <path class="st7" d="M44,24.3c0-1-0.4-1.8-1.1-2.4c-0.7-0.6-1.6-1-2.7-1c-0.9,0-1.6,0.2-2.2,0.7s-1.1,1.1-1.4,1.8l1.5,0.6 c0.4-1,1.1-1.6,2.1-1.6c0.6,0,1.1,0.2,1.5,0.5c0.4,0.3,0.6,0.8,0.6,1.3c0,0.6-0.2,1-0.6,1.4s-0.9,0.5-1.6,0.5h-0.9v0.7h3.2v0 C43.5,26.3,44,25.4,44,24.3z"></path> <rect x="48.6" y="26.9" class="st6" width="1.6" height="6.4"></rect> <polygon class="st7" points="49.2,21.2 45.7,22.9 46.3,24.3 48.6,23.2 48.6,26.9 50.3,26.9 50.3,21.2 "></polygon> <circle class="st8" cx="38.1" cy="13.5" r="1"></circle> <circle class="st8" cx="50.5" cy="13.5" r="1"></circle> <circle class="st9" cx="37.8" cy="13.3" r="1"></circle> <circle class="st9" cx="50.3" cy="13.3" r="1"></circle> </g> </g> </g> </svg> 