<?xml version="1.0" encoding="UTF-8"?> <!-- Generator: Adobe Illustrator 23.0.6, SVG Export Plug-In . SVG Version: 6.00 Build 0) --> <svg xmlns="http://www.w3.org/2000/svg" xmlns:xlink="http://www.w3.org/1999/xlink" id="Layer_1" x="0px" y="0px" viewBox="0 0 200 53.8" style="enable-background:new 0 0 200 53.8;" xml:space="preserve"> <style type="text/css"> .st0{fill:#90908F;} .st1{fill:#FFFFFF;} .st2{fill:#F6E341;} .st3{fill:#20A764;} .st4{fill:#5282C2;} .st5{fill:#D2D5D1;} .st6{fill:#FDF4F6;} .st7{fill:#E14B3C;} .st8{fill:#812A28;} .st9{fill:#767576;} </style> <g> <g> <path class="st0" d="M186,53.8H14c-7.8,0-14-6.3-14-14V17.8c0-7.8,6.3-14,14-14H186c7.8,0,14,6.3,14,14v21.9 C200,47.5,193.7,53.8,186,53.8z"></path> <path class="st1" d="M186,50H14C6.3,50,0,43.7,0,36V14C0,6.3,6.3,0,14,0H186c7.8,0,14,6.3,14,14V36C200,43.7,193.7,50,186,50z"></path> </g> <g> <g> <path class="st2" d="M62,8.4L31.2,39.5c0.8,1.1,1.8,2,3,2.6l30.5-30.8C64.1,10.1,63.1,9.1,62,8.4z"></path> <path class="st3" d="M57.4,7H38c-4.6,0-8.3,3.7-8.3,8.3v1.7v17.8c0,1.8,0.6,3.4,1.5,4.8L62,8.4C60.7,7.5,59.1,7,57.4,7z"></path> <path class="st4" d="M34.2,42.1c1.1,0.6,2.4,0.9,3.8,0.9h19.4c1.4,0,2.8-0.4,3.9-1L47.7,28.5L34.2,42.1z"></path> <path class="st5" d="M65.7,34.7V16.9v-1.7c0-1.4-0.4-2.8-1-4L50.8,25.4L64.5,39C65.3,37.7,65.7,36.3,65.7,34.7z"></path> <path class="st6" d="M64.5,39L50.8,25.4l-3.1,3.1L61.4,42C62.7,41.3,63.8,40.3,64.5,39z"></path> <path class="st1" d="M44.3,15.2h-0.9h-1.2h-3v2h3c-0.4,1.3-1.6,2.2-3,2.2c-1.7,0-3.2-1.4-3.2-3.2s1.4-3.2,3.2-3.2 c0.9,0,1.7,0.4,2.3,1l1.4-1.5c-0.9-0.9-2.2-1.5-3.6-1.5c-2.9,0-5.2,2.3-5.2,5.2c0,2.9,2.3,5.2,5.2,5.2c2.9,0,5.2-2.3,5.2-5.2 C44.4,15.8,44.4,15.5,44.3,15.2z"></path> <path class="st7" d="M58,7c-4.2,0-7.6,3.4-7.6,7.6c0,5.9,4.4,10.1,5.6,12.6c1.2,2.5,1.4,5.5,1.4,5.5c0,0.4,0.3,0.6,0.6,0.6 c0.4,0,0.6-0.3,0.6-0.6c0,0,0.1-2.9,1.4-5.5c1.2-2.5,5.6-6.7,5.6-12.6C65.7,10.4,62.2,7,58,7z"></path> <circle class="st8" cx="58" cy="14.6" r="2.7"></circle> </g> <g> <g> <g id="g3062_1_"> <g id="path3064_1_"> <path class="st9" d="M84.8,23.8h-6.2v1.8H83c-0.2,2.6-2.4,3.7-4.4,3.7c-2.6,0-4.8-2-4.8-4.9c0-2.8,2.2-4.9,4.9-4.9 c2.1,0,3.3,1.3,3.3,1.3l1.3-1.3c0,0-1.7-1.8-4.7-1.8c-3.8,0-6.8,3.2-6.8,6.7c0,3.4,2.8,6.8,6.9,6.8c3.6,0,6.3-2.5,6.3-6.1 C84.9,24.2,84.8,23.8,84.8,23.8L84.8,23.8z"></path> </g> <g id="path3066_1_"> <path class="st9" d="M89.8,22.4c-2.5,0-4.4,2-4.4,4.3c0,2.3,1.8,4.4,4.4,4.4c2.4,0,4.3-1.8,4.3-4.3 C94.2,23.9,91.9,22.4,89.8,22.4z M89.9,24.1c1.2,0,2.4,1,2.4,2.6c0,1.6-1.2,2.6-2.4,2.6c-1.4,0-2.5-1.1-2.5-2.6 C87.4,25.3,88.5,24.1,89.9,24.1z"></path> </g> <g id="path3068_1_"> <path class="st9" d="M99.3,22.4c-2.5,0-4.4,2-4.4,4.3c0,2.3,1.8,4.4,4.4,4.4c2.4,0,4.3-1.8,4.3-4.3 C103.7,23.9,101.4,22.4,99.3,22.4z M99.3,24.1c1.2,0,2.4,1,2.4,2.6c0,1.6-1.2,2.6-2.4,2.6c-1.4,0-2.5-1.1-2.5-2.6 C96.9,25.3,97.9,24.1,99.3,24.1z"></path> </g> <g id="path3070_1_"> <path class="st9" d="M108.6,22.4c-2.3,0-4.2,2-4.2,4.3c0,2.6,2.1,4.3,4.1,4.3c1.2,0,1.9-0.5,2.4-1.1v0.9 c0,1.5-0.9,2.4-2.3,2.4c-1.3,0-2-1-2.2-1.5l-1.7,0.7c0.6,1.2,1.8,2.6,3.9,2.6c2.3,0,4.1-1.5,4.1-4.5v-7.8H111v0.7 C110.4,22.8,109.6,22.4,108.6,22.4L108.6,22.4z M108.8,24.1c1.1,0,2.3,1,2.3,2.6c0,1.7-1.2,2.6-2.3,2.6c-1.2,0-2.4-1-2.4-2.6 C106.4,25.1,107.6,24.1,108.8,24.1z"></path> </g> <g id="path3072_1_"> <path class="st9" d="M120.9,22.4c-2.2,0-4,1.7-4,4.3c0,2.7,2.1,4.4,4.3,4.4c1.8,0,3-1,3.6-1.9l-1.5-1c-0.4,0.6-1,1.2-2.1,1.2 c-1.2,0-1.8-0.7-2.1-1.3l5.8-2.4l-0.3-0.7C123.9,23.6,122.6,22.4,120.9,22.4L120.9,22.4z M120.9,24.1c0.8,0,1.4,0.4,1.6,0.9 l-3.9,1.6C118.5,25.4,119.7,24.1,120.9,24.1L120.9,24.1z"></path> </g> <g id="path3074_1_"> <path class="st9" d="M114,30.9h1.9V18.1H114V30.9z"></path> </g> </g> <g> <path class="st9" d="M131.8,30.8h-1.6V18h1.6l4.5,7.8h0.1l4.5-7.8h1.6v12.8h-1.6v-7.6l0.1-2.1h-0.1l-4,7h-1l-4-7h-0.1l0.1,2.1 V30.8z"></path> <path class="st9" d="M147.7,21.8c1.2,0,2.2,0.3,2.9,1s1.1,1.5,1.1,2.7v5.4h-1.6v-1.2H150c-0.7,1-1.6,1.5-2.7,1.5 c-1,0-1.8-0.3-2.4-0.9c-0.6-0.6-1-1.3-1-2.1c0-0.9,0.3-1.6,1-2.2c0.7-0.5,1.6-0.8,2.7-0.8c1,0,1.8,0.2,2.4,0.5v-0.4 c0-0.6-0.2-1.1-0.7-1.5s-1-0.6-1.6-0.6c-0.9,0-1.6,0.4-2.2,1.2l-1.4-0.9C145,22.3,146.2,21.8,147.7,21.8z M145.6,28.1 c0,0.4,0.2,0.8,0.5,1.1s0.8,0.4,1.3,0.4c0.7,0,1.3-0.3,1.8-0.8c0.5-0.5,0.8-1.1,0.8-1.8c-0.5-0.4-1.2-0.6-2.1-0.6 c-0.7,0-1.2,0.2-1.7,0.5C145.8,27.2,145.6,27.6,145.6,28.1z"></path> <path class="st9" d="M158.1,31.1c-0.6,0-1.2-0.1-1.8-0.4c-0.5-0.3-0.9-0.6-1.2-1.1H155l0.1,1.2v3.9h-1.6V22h1.6v1.2h0.1 c0.3-0.5,0.7-0.8,1.2-1.1s1.1-0.4,1.8-0.4c1.2,0,2.1,0.5,2.9,1.4c0.8,0.9,1.2,2,1.2,3.3c0,1.3-0.4,2.4-1.2,3.3 C160.2,30.6,159.2,31.1,158.1,31.1z M157.8,29.6c0.8,0,1.4-0.3,2-0.9c0.5-0.6,0.8-1.3,0.8-2.3c0-0.9-0.3-1.7-0.8-2.3 s-1.2-0.9-2-0.9c-0.8,0-1.5,0.3-2,0.9c-0.5,0.6-0.8,1.4-0.8,2.3c0,0.9,0.3,1.7,0.8,2.3C156.3,29.3,157,29.6,157.8,29.6z"></path> <path class="st9" d="M170.4,28.4c0,0.8-0.3,1.4-1,1.9c-0.7,0.5-1.5,0.8-2.5,0.8c-0.9,0-1.7-0.2-2.3-0.7 c-0.7-0.5-1.1-1.1-1.4-1.8l1.5-0.6c0.2,0.5,0.5,0.9,0.9,1.2s0.9,0.4,1.3,0.4c0.5,0,1-0.1,1.3-0.3c0.4-0.2,0.5-0.5,0.5-0.8 c0-0.6-0.4-1-1.3-1.2l-1.5-0.4c-1.7-0.4-2.6-1.3-2.6-2.5c0-0.8,0.3-1.4,1-1.9s1.5-0.7,2.5-0.7c0.8,0,1.5,0.2,2.1,0.6 c0.6,0.4,1.1,0.9,1.3,1.5l-1.5,0.6c-0.2-0.4-0.4-0.7-0.8-0.9s-0.8-0.3-1.3-0.3c-0.4,0-0.8,0.1-1.2,0.3 c-0.3,0.2-0.5,0.5-0.5,0.8c0,0.5,0.5,0.9,1.4,1.1l1.3,0.3C169.5,26.2,170.4,27,170.4,28.4z"></path> </g> </g> </g> </g> </g> </svg> 