<?xml version="1.0" encoding="UTF-8"?> <!-- Generator: Adobe Illustrator 23.0.6, SVG Export Plug-In . SVG Version: 6.00 Build 0) --> <svg xmlns="http://www.w3.org/2000/svg" xmlns:xlink="http://www.w3.org/1999/xlink" id="Layer_1" x="0px" y="0px" viewBox="0 0 200 53.8" style="enable-background:new 0 0 200 53.8;" xml:space="preserve"> <style type="text/css"> .st0{fill:#90908F;} .st1{fill:#FFFFFF;} .st2{fill:#1FB5DC;} .st3{fill:#53C8F1;} .st4{fill:#333433;} .st5{fill:#343433;} .st6{fill:#323332;} .st7{fill:#556D74;} .st8{fill:#365259;} </style> <g> <path class="st0" d="M186,53.8H14c-7.8,0-14-6.3-14-14V17.8c0-7.8,6.3-14,14-14H186c7.8,0,14,6.3,14,14v21.9 C200,47.5,193.7,53.8,186,53.8z"></path> <path class="st1" d="M186,50H14C6.3,50,0,43.7,0,36V14C0,6.3,6.3,0,14,0H186c7.8,0,14,6.3,14,14V36C200,43.7,193.7,50,186,50z"></path> <ellipse class="st2" cx="47.7" cy="35.1" rx="7.9" ry="0.4"></ellipse> <g> <g> <path class="st3" d="M57.4,7H38c-4.6,0-8.3,3.7-8.3,8.3v1.7v17.8c0,4.6,3.7,8.3,8.3,8.3h19.4c4.6,0,8.3-3.7,8.3-8.3V16.9v-1.7 C65.7,10.7,62,7,57.4,7z"></path> </g> <g> <path class="st4" d="M95.3,24.5c-1,3.2-2,6.3-3,9.4c-0.6,1.9-1.6,2.8-3.2,2.9c-1.8,0-2.8-0.8-3.5-2.7c-1.6-4.7-3.3-9.4-4.9-14.1 c-0.6-1.8-0.3-3.1,0.8-3.9c1.7-1.1,3.8-0.3,4.5,1.8c0.9,2.9,1.8,5.9,2.7,8.8c0.1,0.3,0.2,0.7,0.4,1.3c0.8-2.5,1.5-4.8,2.2-7.1 c0.3-1,0.6-2.1,1-3.1c0.5-1.6,1.5-2.2,3.1-2.2c1.6,0,2.6,0.6,3.1,2.2c1,3,1.9,6,2.8,9c0.1,0.3,0.2,0.7,0.4,1.2c1-3.3,2-6.5,3-9.6 c0.1-0.4,0.3-0.8,0.5-1.2c0.7-1.4,2.1-1.9,3.5-1.4c1.3,0.5,2.1,1.8,1.6,3.3c-0.9,3-2,5.9-3,8.8c-0.7,2-1.4,4-2.1,6.1 c-0.7,1.9-1.8,2.7-3.5,2.7c-1.7,0-2.6-0.8-3.2-2.8c-0.9-2.8-1.7-5.5-2.6-8.3C95.8,25.3,95.8,24.9,95.3,24.5z"></path> <path class="st5" d="M122.9,24.6c0.2-1.9-0.7-3.2-2.5-3.7c-1.9-0.5-3.7-0.1-5.5,0.3c-1.6,0.4-2.9-0.1-3.3-1.4 c-0.4-1.4,0.3-2.7,1.9-3.2c3.2-1,6.4-1.3,9.7-0.5c3.2,0.8,5,3,5.4,6.1c0.5,3.9,0.2,7.7,0.2,11.6c0,1.4-1,2.5-2.3,2.7 c-1.7,0.3-2.7-0.4-3.4-2.1c-2.2,2.1-4.8,2.7-7.7,2.2c-3.6-0.7-5.4-2.9-5.3-6.5c0.1-3.1,2.2-5.4,5.6-6 C118,23.7,120.5,23.9,122.9,24.6z M119.8,27.4c-1.2,0-2.3,0.1-3.2,0.7c-1.3,0.9-1.4,2.8-0.2,3.8c1.8,1.5,5.6,0.6,6.5-1.6 c0.7-1.7,0.4-2.4-1.4-2.8C120.9,27.5,120.3,27.4,119.8,27.4z"></path> <path class="st6" d="M159,28.2c-1.7,0-3.4,0.1-5.2,0c-1.1,0-1,0.4-0.7,1.1c1,2.3,3.5,3.3,6.3,2.6c0.9-0.2,1.6-0.6,2.4-1.1 c1.2-0.8,2.5-0.6,3.3,0.4c0.8,1,0.6,2.5-0.6,3.4c-3.7,2.8-7.7,3-11.7,1.2c-3.9-1.8-5.6-5.1-5.7-9.3c-0.2-5,3-9.5,7.7-10.6 c6.3-1.5,12.3,3.1,12.3,9.5c0,1.8-1,2.8-2.8,2.9C162.5,28.3,160.7,28.2,159,28.2z M161.3,24.6c-0.2-2.5-1.8-4.2-4-4.3 c-2-0.1-3.9,1.5-4.4,3.7c-0.1,0.5,0,0.6,0.5,0.6C156,24.6,158.6,24.6,161.3,24.6z"></path> <path class="st6" d="M140.2,20.7c-2.7,0-5.1,0-7.6,0c-1.6,0-2.7-0.9-2.8-2.3c0-1.4,1.1-2.4,2.8-2.5c3.8,0,7.7,0,11.5,0 c1.4,0,2.7,0,3.4,1.4c0.7,1.5,0,2.8-1.1,3.9c-3.1,3.4-6.1,6.7-9.2,10.2c0.4,0.3,0.9,0.2,1.3,0.2c2.2,0,4.3,0,6.5,0 c1.7,0,2.8,1,2.8,2.5c0,1.5-1,2.3-2.9,2.3c-4,0-8.1,0-12.1,0c-1.2,0-2.5-0.1-3-1.4c-0.6-1.4-0.1-2.6,0.8-3.6 c2.5-2.8,5-5.5,7.5-8.3C138.7,22.4,139.4,21.6,140.2,20.7z"></path> </g> </g> <path class="st1" d="M49.1,15.1c-4.7,0-8.6,3.5-8.6,7.9c0,0,0.4,2.4-0.9,3.9c-0.5,0.6-1.1,0.9-1.8,1c0.4,1,1.6,1.8,3.7,2.3 c0.5-0.5,1.2-0.8,1.9-0.8c1,0,1.9,0.5,2.4,1.3c1,0.1,2,0.1,3.3,0.1c0.1,0,0.3,0,0.4,0c0.5-0.8,1.4-1.4,2.5-1.4c0.5,0,1,0.1,1.4,0.4 c2.7-1.4,4.3-4,4.3-6.8C57.7,18.6,53.8,15.1,49.1,15.1z M52,20.1L52,20.1c0.4,0,0.7,0.3,0.7,0.7s-0.3,0.7-0.7,0.7 c-0.4,0-0.7-0.3-0.7-0.7S51.6,20.1,52,20.1z M46.3,20.1L46.3,20.1c0.4,0,0.7,0.3,0.7,0.7s-0.3,0.7-0.7,0.7s-0.7-0.3-0.7-0.7 S45.9,20.1,46.3,20.1z M53.4,24.5c-0.5,2-2.2,3.4-4.3,3.4c-2.1,0-3.8-1.4-4.3-3.4c-0.1-0.4,0.2-0.8,0.5-0.9 c0.4-0.1,0.8,0.2,0.9,0.5c0.3,1.4,1.5,2.3,2.9,2.3s2.6-0.9,2.9-2.3c0.1-0.4,0.5-0.6,0.9-0.5C53.2,23.8,53.5,24.2,53.4,24.5z"></path> <path class="st7" d="M43.4,30.8c-0.4,0-0.8,0.2-1,0.5c0,0.1-0.1,0.1-0.1,0.2C42.1,31.7,42,32,42,32.2c0,0.8,0.6,1.4,1.4,1.4 s1.4-0.6,1.4-1.4C44.8,31.5,44.2,30.8,43.4,30.8z"></path> <path class="st7" d="M52.8,31.1c-0.2-0.2-0.5-0.3-0.8-0.3c-0.6,0-1.1,0.4-1.3,0.9c0,0,0,0.1,0,0.1c0,0.1-0.1,0.3-0.1,0.5 c0,0.8,0.6,1.4,1.4,1.4c0.8,0,1.4-0.6,1.4-1.4c0-0.4-0.2-0.8-0.4-1C52.9,31.2,52.9,31.1,52.8,31.1z"></path> <path class="st8" d="M49.1,13.7c-5.5,0-10,4.2-10,9.4c0.1,0.5,0.1,2-0.6,2.8c-0.4,0.4-0.9,0.6-1.6,0.6c-0.4,0-0.7,0.3-0.7,0.7 c0,2,1.5,3.4,4.4,4.2c-0.1,0.3-0.1,0.5-0.1,0.8c0,1.6,1.3,2.9,2.9,2.9c1.6,0,2.9-1.3,2.9-2.9c0,0,0,0,0-0.1c0.8,0,1.8,0.1,2.9,0.1 c0,1.6,1.3,2.9,2.9,2.9c1.6,0,2.9-1.3,2.9-2.9c0-0.5-0.1-1-0.4-1.4c2.9-1.7,4.7-4.6,4.7-7.9C59.1,17.8,54.6,13.7,49.1,13.7z M43.4,33.7c-0.8,0-1.4-0.6-1.4-1.4c0-0.3,0.1-0.6,0.2-0.8c0.1-0.1,0.1-0.1,0.1-0.2c0.3-0.3,0.6-0.5,1-0.5c0.8,0,1.4,0.6,1.4,1.4 C44.8,33,44.2,33.7,43.4,33.7z M52,33.7c-0.8,0-1.4-0.6-1.4-1.4c0-0.2,0-0.3,0.1-0.5c0,0,0-0.1,0-0.1c0.2-0.5,0.7-0.9,1.3-0.9 c0.3,0,0.6,0.1,0.8,0.3c0,0,0.1,0.1,0.2,0.1c0.3,0.3,0.4,0.6,0.4,1C53.4,33,52.8,33.7,52,33.7z M53.4,29.8 c-0.4-0.2-0.9-0.4-1.4-0.4c-1.1,0-2,0.6-2.5,1.4c-0.1,0-0.3,0-0.4,0c-1.3,0-2.3,0-3.3-0.1c-0.5-0.8-1.4-1.3-2.4-1.3 c-0.7,0-1.4,0.3-1.9,0.8c-2.1-0.5-3.3-1.3-3.7-2.3c0.8-0.1,1.4-0.5,1.8-1c1.3-1.5,0.9-3.9,0.9-3.9c0-4.3,3.8-7.9,8.6-7.9 s8.6,3.5,8.6,7.9C57.7,25.8,56.1,28.4,53.4,29.8z"></path> <path class="st8" d="M46.3,22.1c0.7,0,1.3-0.6,1.3-1.3s-0.6-1.3-1.3-1.3h0c-0.7,0-1.2,0.6-1.2,1.3S45.6,22.1,46.3,22.1z"></path> <path class="st8" d="M52,22.1c0.7,0,1.3-0.6,1.3-1.3s-0.6-1.3-1.3-1.3h0c-0.7,0-1.2,0.6-1.2,1.3S51.3,22.1,52,22.1z"></path> <path class="st8" d="M52.9,23.7c-0.4-0.1-0.8,0.2-0.9,0.5c-0.3,1.4-1.5,2.3-2.9,2.3s-2.6-0.9-2.9-2.3c-0.1-0.4-0.5-0.6-0.9-0.5 c-0.4,0.1-0.6,0.5-0.5,0.9c0.5,2,2.2,3.4,4.3,3.4c2.1,0,3.8-1.4,4.3-3.4C53.5,24.2,53.2,23.8,52.9,23.7z"></path> </g> </svg> 